<svg xmlns="http://www.w3.org/2000/svg" xmlns:xlink="http://www.w3.org/1999/xlink" xmlns:svgjs="http://svgjs.com/svgjs" x="0" y="0" viewBox="0 0 512 512" style="enable-background:new 0 0 512 512" xml:space="preserve" class=""><g><path d="m403.5 182.3v98.5c-6.9-5.2-15.3-8.4-24.6-8.4h-90.1v-16.4h59.6c40 0 42.5-37.5 40.4-50.6l-24.1-181.6c-1.9-12.6-12.1-21.8-24.3-21.8h-168.8c-12.1 0-22.3 9.2-24.3 21.9l-24.1 181.3c-2 13.3 3 50.8 40.4 50.8h59.6v16.4h-90.1c-9.3 0-17.7 3.2-24.6 8.4v-98.5h-49.1v16.4h32.8v114.7c0 22.6 18.4 41 41 41h114.7v36.6l-87.7 59.5c-5.3-3.8-11.8-6-18.8-6-18.1 0-32.8 14.7-32.8 32.8s14.7 32.8 32.8 32.8 32.8-14.7 32.8-32.8c0-5.1-1.3-9.8-3.3-14.1l77.1-52.3v34.9c-14.1 3.7-24.6 16.4-24.6 31.6 0 18.1 14.7 32.8 32.8 32.8s32.8-14.7 32.8-32.8c0-15.2-10.5-27.9-24.6-31.6v-35.8l77.5 52.5c-2.3 4.5-3.8 9.5-3.8 14.9 0 18.1 14.7 32.8 32.8 32.8s32.8-14.7 32.8-32.8-14.7-32.8-32.8-32.8c-6.7 0-12.9 2-18.1 5.5l-88.6-60.1v-35.7h114.7c22.6 0 41-18.4 41-41v-114.7h32.8v-16.4h-49.2zm-262.2 311.3c-9 0-16.4-7.3-16.4-16.4s7.3-16.4 16.4-16.4c9 0 16.4 7.3 16.4 16.4s-7.4 16.4-16.4 16.4zm229.4-32.8c9 0 16.4 7.3 16.4 16.4s-7.3 16.4-16.4 16.4c-9 0-16.4-7.3-16.4-16.4s7.4-16.4 16.4-16.4zm-207.1-221.2c-21.4 0-25.6-23.3-24.2-32.1l24.1-181.3c.7-4.6 4.1-7.9 8.1-7.9h168.9c4 0 7.4 3.3 8 7.7l24.2 181.6c1.3 8.6.1 31.9-24.2 31.9h-184.9zm108.8 16.4v16.4h-32.8v-16.4zm0 221.2c0 9-7.3 16.4-16.4 16.4-9 0-16.4-7.3-16.4-16.4s7.3-16.4 16.4-16.4c9 0 16.4 7.4 16.4 16.4zm106.5-139.3h-245.8c-13.6 0-24.6-11-24.6-24.6s11-24.6 24.6-24.6h245.8c13.6 0 24.6 11 24.6 24.6s-11 24.6-24.6 24.6z" fill="currentColor" data-original="#000000" class=""/></g></svg>