<svg xmlns="http://www.w3.org/2000/svg" xmlns:xlink="http://www.w3.org/1999/xlink" xmlns:svgjs="http://svgjs.com/svgjs" x="0" y="0" viewBox="0 0 512 512" style="enable-background:new 0 0 512 512" xml:space="preserve" class=""><g><path d="m443.572 433.082c-4.225 4.213-6.57 9.809-6.57 15.779-.012 5.984 2.313 11.598 6.559 15.84 4.225 4.229 9.824 6.547 15.789 6.547s11.604-2.334 15.842-6.561c4.193-4.229 6.518-9.842 6.518-15.797.014-5.982-2.324-11.584-6.529-15.797-8.474-8.45-23.234-8.431-31.609-.011zm19.918 19.922c-2.207 2.229-6.049 2.229-8.256.016-1.113-1.109-1.725-2.582-1.705-4.141 0-1.553.592-2.99 1.719-4.104 1.1-1.109 2.553-1.709 4.121-1.709 1.543 0 3.016.6 4.121 1.729 1.102 1.078 1.701 2.531 1.701 4.084 0 1.559-.599 3.031-1.701 4.125zm39.707-28.117-118.982-111.735c-13.113-13.121-36.053-13.244-49.461-.424l-8.223-8.207c-4.26-4.266-6.713-13.428-5.307-18.734l60.51-178.958c3.066-11.392-1.063-26.847-9.41-35.185l-25.92-25.928c-9.279-9.279-24.152-9.36-33.75-.612l-24.762-24.763c-13.277-13.309-36.655-13.309-49.964-.02l-227.621 227.636c-6.648 6.647-10.324 15.52-10.307 24.986 0 9.455 3.66 18.334 10.308 24.975l47.998 47.982c6.642 6.643 15.52 10.324 24.984 10.324 9.455 0 18.346-3.66 24.991-10.324l227.606-227.605c6.662-6.648 10.322-15.52 10.322-24.971 0-9.471-3.66-18.342-10.322-24.991l-11.551-11.551c3.125-2.354 7.533-2.24 10.387.612l25.928 25.928c4.258 4.255 6.693 13.404 5.293 18.71l-60.516 178.965c-3.066 11.385 1.061 26.848 9.422 35.201l8.242 8.244c-6.275 6.566-9.793 15.148-9.793 24.309 0 9.475 3.66 18.346 10.133 24.813l112.105 119.354c5.633 5.629 13.766 8.725 22.875 8.725 11.33 0 23.09-4.742 30.701-12.355l10.652-10.633c13.225-13.225 17.698-39.509 3.432-53.768zm-173.508-331.563c0 5.033-1.955 9.761-5.482 13.293l-227.604 227.602c-7.062 7.068-19.554 7.068-26.619 0l-47.992-47.979c-3.536-3.535-5.473-8.26-5.473-13.309 0-5.053 1.937-9.762 5.473-13.297l227.612-227.631c3.536-3.532 8.246-5.473 13.299-5.473s9.773 1.953 13.309 5.489l47.996 47.992c3.526 3.536 5.481 8.26 5.481 13.313zm158.389 373.653-10.641 10.629c-4.57 4.568-12.039 7.521-19.025 7.521-3.34 0-7.971-.678-11.018-3.711l-112.105-119.353c-3.537-3.529-5.471-8.244-5.471-13.291 0-5.049 1.953-9.779 5.482-13.309l10.621-10.633c3.529-3.516 8.256-5.471 13.309-5.471 5.047 0 9.773 1.936 13.506 5.646l118.975 111.735c7.033 7.049 3.822 22.781-3.633 30.237z" fill="currentColor" data-original="#000000" class=""/></g></svg>